<?xml version="1.0" encoding="UTF-8" standalone="no"?>
<!-- Created with Inkscape (http://www.inkscape.org/) -->

<svg
   xmlns:dc="http://purl.org/dc/elements/1.1/"
   xmlns:cc="http://creativecommons.org/ns#"
   xmlns:rdf="http://www.w3.org/1999/02/22-rdf-syntax-ns#"
   xmlns:svg="http://www.w3.org/2000/svg"
   xmlns="http://www.w3.org/2000/svg"
   xmlns:sodipodi="http://sodipodi.sourceforge.net/DTD/sodipodi-0.dtd"
   xmlns:inkscape="http://www.inkscape.org/namespaces/inkscape"
   width="46"
   height="20"
   id="svg2"
   version="1.1"
   inkscape:version="0.48.2 r9819"
   sodipodi:docname="mEd-icon.svg">
  <defs
     id="defs4" />
  <sodipodi:namedview
     id="base"
     pagecolor="#ffffff"
     bordercolor="#666666"
     borderopacity="1.0"
     inkscape:pageopacity="0.0"
     inkscape:pageshadow="2"
     inkscape:zoom="29.631141"
     inkscape:cx="20.663022"
     inkscape:cy="7.3486472"
     inkscape:document-units="px"
     inkscape:current-layer="layer1"
     showgrid="false"
     height="16px"
     fit-margin-top="0"
     fit-margin-left="0"
     fit-margin-right="0"
     fit-margin-bottom="0"
     inkscape:window-width="1920"
     inkscape:window-height="1148"
     inkscape:window-x="-8"
     inkscape:window-y="-8"
     inkscape:window-maximized="1" />
  <metadata
     id="metadata7">
    <rdf:RDF>
      <cc:Work
         rdf:about="">
        <dc:format>image/svg+xml</dc:format>
        <dc:type
           rdf:resource="http://purl.org/dc/dcmitype/StillImage" />
        <dc:title />
      </cc:Work>
    </rdf:RDF>
  </metadata>
  <g
     inkscape:label="Ebene 1"
     inkscape:groupmode="layer"
     id="layer1"
     transform="translate(-0.33697806,-1031.7109)">
    <g
       style="font-size:48.10430908px;font-style:normal;font-weight:normal;line-height:125%;letter-spacing:0px;word-spacing:0px;fill:#000000;fill-opacity:1;stroke:none;font-family:Sans"
       id="text2985"
       transform="translate(0,-2)">
      <path
         d="m 8.8774982,1042.3815 c 0.4321767,-0.7767 0.9489217,-1.3498 1.5502368,-1.7194 0.601291,-0.3695 1.309076,-0.5543 2.123354,-0.5543 1.096112,0 1.941695,0.3836 2.536751,1.1509 0.595023,0.7673 0.892543,1.8587 0.89256,3.2743 l 0,6.3513 -1.738144,0 0,-6.2949 c -1.5e-5,-1.0085 -0.178527,-1.7569 -0.535536,-2.2455 -0.357039,-0.4886 -0.90197,-0.7328 -1.634795,-0.7329 -0.895705,10e-5 -1.603489,0.2976 -2.1233543,0.8926 -0.5198879,0.5951 -0.7798263,1.4062 -0.779816,2.4334 l 0,5.9473 -1.738144,0 0,-6.2949 c -8.5e-6,-1.0147 -0.1785204,-1.7648 -0.5355362,-2.2502 -0.3570319,-0.4854 -0.9082266,-0.7281 -1.6535857,-0.7282 -0.8831706,10e-5 -1.584691,0.2991 -2.1045636,0.8973 -0.519881,0.5982 -0.7798194,1.4077 -0.7798159,2.4287 l 0,5.9473 -1.73814404,0 0,-10.5228 1.73814404,0 0,1.6348 c 0.3946018,-0.6452 0.8675017,-1.1212 1.4187013,-1.4281 0.5511898,-0.3069 1.2057334,-0.4604 1.963633,-0.4604 0.7641493,0 1.4139953,0.1942 1.9495399,0.5825 0.5355269,0.3883 0.9316981,0.9521 1.1885147,1.6912 z"
         style="font-size:19.24172401px;font-variant:normal;font-stretch:normal;font-family:DejaVu Sans;-inkscape-font-specification:DejaVu Sans"
         id="path2990"
         inkscape:connector-curvature="0" />
      <path
         d="m 19.51306,1036.857 8.869232,0 0,1.5972 -6.971367,0 0,4.1528 6.680111,0 0,1.5972 -6.680111,0 0,5.0829 7.140484,0 0,1.5972 -9.038349,0 z"
         style="font-size:19.24172401px;font-variant:normal;font-stretch:normal;font-family:DejaVu Sans;-inkscape-font-specification:DejaVu Sans"
         id="path2992"
         inkscape:connector-curvature="0" />
      <path
         d="m 38.53869,1041.9587 0,-5.6936 1.728749,0 0,14.6192 -1.728749,0 0,-1.5784 c -0.363296,0.6263 -0.822103,1.0914 -1.376422,1.3952 -0.554334,0.3038 -1.219839,0.4556 -1.996517,0.4556 -1.271511,0 -2.306567,-0.5073 -3.105171,-1.522 -0.798608,-1.0147 -1.197911,-2.3488 -1.19791,-4.0024 -1e-6,-1.6536 0.399302,-2.9878 1.19791,-4.0025 0.798604,-1.0147 1.83366,-1.522 3.105171,-1.522 0.776678,0 1.442183,0.1519 1.996517,0.4557 0.554319,0.3038 1.013126,0.7688 1.376422,1.3952 z m -5.890899,3.6736 c -3e-6,1.2715 0.261502,2.2689 0.784514,2.9924 0.523005,0.7234 1.24175,1.0852 2.156238,1.0852 0.914476,0 1.634787,-0.3618 2.160936,-1.0852 0.526132,-0.7235 0.789202,-1.7209 0.789211,-2.9924 -9e-6,-1.2715 -0.263079,-2.269 -0.789211,-2.9925 -0.526149,-0.7234 -1.24646,-1.0851 -2.160936,-1.0851 -0.914488,0 -1.633233,0.3617 -2.156238,1.0851 -0.523012,0.7235 -0.784517,1.721 -0.784514,2.9925 z"
         style="font-size:19.24172401px;font-variant:normal;font-stretch:normal;font-family:DejaVu Sans;-inkscape-font-specification:DejaVu Sans"
         id="path2994"
         inkscape:connector-curvature="0" />
      <path
         d="m 44.072567,1048.4979 1.982424,0 0,2.3864 -1.982424,0 z"
         style="font-size:19.24172401px;font-variant:normal;font-stretch:normal;font-family:DejaVu Sans;-inkscape-font-specification:DejaVu Sans"
         id="path2996"
         inkscape:connector-curvature="0" />
    </g>
  </g>
</svg>
